<?xml version="1.0" standalone="no"?>
<!DOCTYPE svg PUBLIC "-//W3C//DTD SVG 20010904//EN"
 "http://www.w3.org/TR/2001/REC-SVG-20010904/DTD/svg10.dtd">
<svg version="1.0" xmlns="http://www.w3.org/2000/svg"
 width="256.000000pt" height="256.000000pt" viewBox="0 0 256.000000 256.000000"
 preserveAspectRatio="xMidYMid meet">

<g transform="translate(0.000000,256.000000) scale(0.100000,-0.100000)"
fill="#000000" stroke="none">
<path d="M2300 2399 c-176 -34 -337 -203 -395 -414 -25 -90 -31 -309 -11 -425
37 -230 149 -463 313 -657 142 -167 237 -333 273 -477 22 -89 25 -125 10 -175
-9 -33 -46 -81 -61 -81 -4 0 -15 26 -24 57 -51 174 -191 357 -330 429 l-52 28
-6 67 c-3 36 -17 101 -32 144 l-26 78 21 22 c24 25 26 55 5 95 -9 18 -11 31
-5 35 21 13 10 66 -20 97 -27 27 -35 29 -73 24 -23 -3 -46 -6 -52 -6 -23 0
-121 16 -130 22 -6 3 -9 27 -7 52 3 38 9 49 31 60 35 19 64 52 92 106 31 60
38 202 15 282 -16 56 -85 148 -111 148 -7 0 -18 22 -25 50 -15 64 -81 154
-148 203 -138 102 -333 141 -500 102 -75 -18 -113 -36 -169 -81 -26 -22 -52
-34 -71 -34 -24 0 -35 -8 -51 -34 -16 -26 -26 -32 -44 -29 -68 13 -171 -54
-219 -143 -35 -67 -42 -112 -23 -167 10 -29 13 -60 9 -85 -10 -63 -13 -65 -85
-54 -85 13 -105 -2 -78 -62 13 -27 44 -39 68 -27 9 5 51 11 94 14 95 7 102 -8
25 -48 -66 -34 -65 -33 -46 -48 9 -6 19 -27 23 -45 6 -28 2 -36 -24 -59 -35
-31 -42 -81 -16 -103 8 -7 15 -27 15 -44 0 -17 4 -37 9 -45 9 -14 -45 -121
-64 -128 -5 -1 -23 8 -40 21 -30 24 -30 24 -12 54 31 55 17 104 -36 127 -27
11 -37 11 -65 -1 -23 -9 -40 -10 -57 -4 -33 12 -69 -2 -91 -35 -14 -21 -15
-31 -5 -51 9 -21 8 -30 -9 -51 -27 -34 -25 -59 5 -88 17 -18 35 -25 64 -25 22
0 43 4 46 10 3 5 23 -7 43 -28 20 -21 50 -48 65 -59 l28 -22 -30 -88 c-49
-143 -71 -242 -71 -316 l0 -69 -49 -44 c-63 -57 -118 -139 -147 -223 -28 -78
-32 -151 -9 -151 11 0 15 11 15 38 0 47 38 153 74 211 41 64 107 126 160 149
53 24 62 47 15 40 l-32 -5 6 81 c3 51 18 124 41 199 36 118 126 332 148 352 8
7 9 5 4 -10 -49 -132 -68 -308 -55 -485 10 -118 9 -135 -10 -204 -11 -41 -37
-109 -56 -150 -49 -104 -70 -216 -41 -216 15 0 26 30 26 74 0 15 20 74 44 130
69 158 70 164 70 436 1 265 8 312 63 428 21 45 28 52 54 52 20 0 43 12 73 40
l43 40 6 -28 c8 -40 37 -71 73 -78 26 -5 38 0 68 26 l36 32 11 -31 c18 -52 68
-66 110 -32 l23 19 18 -39 c15 -35 21 -39 54 -39 33 0 45 7 91 58 52 56 73 96
58 110 -4 4 -10 2 -12 -5 -11 -30 -46 -63 -69 -63 -13 0 -63 20 -111 45 -121
62 -181 76 -373 84 -217 10 -237 20 -174 85 23 24 34 44 34 65 0 29 2 30 57
36 94 10 151 26 189 51 54 37 80 32 107 -23 9 -17 30 -41 47 -53 35 -25 178
-79 229 -87 l34 -6 -8 34 c-25 106 2 127 69 55 23 -25 51 -46 61 -46 27 0 136
53 154 73 25 31 6 43 -90 57 -84 11 -95 15 -124 45 -43 46 -95 55 -149 26 -51
-26 -59 -26 -285 7 l-185 27 -21 40 c-19 36 -24 40 -57 39 l-37 -1 18 47 c39
103 134 215 182 215 17 0 22 7 24 30 2 33 48 129 65 140 18 11 53 -3 95 -39
43 -37 42 -39 -28 -51 -23 -4 -37 -11 -34 -18 4 -13 9 -13 132 1 132 15 307
-15 397 -66 26 -15 26 -16 8 -29 -25 -18 -26 -37 -1 -30 14 3 17 0 14 -14 -7
-24 -1 -24 39 1 18 11 42 20 53 20 11 -1 3 -7 -20 -15 -22 -8 -41 -15 -42 -15
-2 0 -3 -6 -3 -14 0 -8 8 -17 19 -21 42 -13 51 -37 40 -102 -21 -121 25 -284
95 -338 21 -16 46 -25 69 -25 34 0 37 -2 37 -27 0 -16 -7 -59 -15 -98 -8 -38
-15 -76 -15 -82 0 -21 20 -15 30 10 8 20 9 20 9 -9 1 -19 10 -39 26 -54 14
-13 25 -29 25 -35 0 -7 -18 -40 -41 -75 -34 -52 -38 -65 -27 -76 11 -11 17 -6
37 31 13 25 29 45 35 45 6 0 12 10 13 23 1 12 5 36 8 53 6 26 3 33 -19 48 -14
9 -26 21 -26 26 0 11 28 9 48 -3 6 -5 12 -4 12 1 0 6 -14 15 -31 21 -30 10
-31 12 -17 33 11 16 25 23 49 23 33 0 34 -1 31 -41 -2 -35 2 -42 22 -52 19 -8
26 -8 29 1 2 7 8 9 12 5 15 -14 -16 -38 -41 -32 -15 4 -24 2 -24 -5 0 -6 16
-11 35 -11 24 0 35 5 35 15 0 17 16 20 25 4 4 -6 14 -8 23 -4 19 7 52 -27 52
-54 0 -23 -22 -41 -28 -23 -6 18 -20 14 -25 -6 -4 -14 -5 -14 -6 3 -1 17 -3
18 -11 5 -7 -11 -10 -11 -10 -2 0 7 7 24 16 37 16 24 15 25 -5 25 -12 0 -28
-6 -35 -13 -12 -10 -12 -15 2 -30 14 -16 14 -17 0 -12 -10 4 -17 -1 -21 -14
-5 -21 -37 -30 -37 -11 0 6 -9 10 -20 10 -28 0 -25 -17 8 -45 l27 -24 -20 -38
c-10 -21 -28 -49 -37 -62 -13 -18 -16 -27 -8 -35 14 -14 40 18 83 105 31 63
33 65 60 56 17 -5 33 -21 42 -43 19 -46 45 -173 45 -221 0 -37 3 -40 53 -65
176 -87 323 -304 352 -523 4 -27 12 -56 18 -64 9 -11 9 -13 1 -8 -13 8 -23
-11 -17 -30 7 -19 23 -16 23 3 0 13 8 15 38 12 48 -6 102 9 102 28 0 10 -6 13
-17 10 -89 -26 -113 -19 -113 34 0 30 5 40 20 45 12 4 33 25 48 48 24 36 27
50 26 121 0 47 -8 106 -18 141 -32 109 -111 255 -200 370 -47 61 -112 144
-144 186 -157 204 -252 483 -252 737 0 330 153 565 402 618 70 15 166 14 227
-2 19 -6 22 -3 19 12 -2 13 -15 21 -43 26 -53 9 -159 8 -215 -3z m-1009 -275
c79 -24 159 -67 199 -109 29 -30 32 -37 20 -45 -8 -5 -24 -10 -35 -10 -11 0
-27 -5 -35 -10 -10 -6 -27 -2 -55 15 -88 51 -283 92 -379 79 -36 -5 -44 -3
-50 12 -9 23 29 57 89 79 48 18 166 13 246 -11z m249 -205 c16 -28 8 -32 -26
-14 -16 8 -36 15 -44 16 -8 1 -4 5 10 9 40 13 49 11 60 -11z m-36 -84 c-4 -8
-10 -15 -14 -15 -4 0 -13 7 -20 15 -11 13 -8 15 13 15 19 0 25 -4 21 -15z
m-926 -200 c12 -27 10 -28 -36 -19 -27 6 -30 9 -21 25 14 27 44 24 57 -6z
m622 -90 c42 -22 37 -27 -17 -20 -73 10 -88 15 -72 26 21 13 57 11 89 -6z
m-571 -329 c16 -19 -40 -66 -79 -66 -31 0 -45 13 -55 53 l-7 27 65 0 c43 0 68
-5 76 -14z m215 -6 c11 -11 -16 -54 -49 -76 -42 -28 -74 -3 -90 70 l-6 29 68
-7 c37 -4 72 -11 77 -16z m854 0 c-14 -22 -24 -19 -15 5 4 8 11 15 17 15 6 0
6 -7 -2 -20z m242 -10 c28 -28 26 -58 -6 -70 -21 -9 -29 -6 -45 12 -13 17 -18
19 -19 8 0 -10 -7 -7 -20 10 -17 23 -17 26 -3 42 21 24 68 23 93 -2z m-973
-27 c30 -12 33 -16 22 -31 -41 -54 -74 -56 -88 -4 -20 69 -18 71 66 35z m-753
1 c4 -11 1 -14 -11 -12 -9 2 -18 9 -21 16 -6 18 25 15 32 -4z m277 -67 c-10
-9 -11 -8 -5 6 3 10 9 15 12 12 3 -3 0 -11 -7 -18z m602 3 c42 -16 43 -30 3
-45 -23 -8 -30 -6 -42 10 -15 20 -19 59 -6 53 4 -2 24 -10 45 -18z m-916 -12
c-3 -8 -6 -5 -6 6 -1 11 2 17 5 13 3 -3 4 -12 1 -19z m94 -31 c-10 -9 -11 -8
-5 6 3 10 9 15 12 12 3 -3 0 -11 -7 -18z m46 -27 c-6 -11 -16 -20 -20 -20 -5
0 -5 -9 -2 -20 9 -28 -14 -26 -24 3 -11 28 -5 38 16 30 12 -5 14 -3 8 6 -4 8
-2 17 6 21 20 13 30 1 16 -20z m-182 11 c3 -5 0 -13 -6 -17 -7 -4 -9 -3 -5 4
3 5 0 13 -6 15 -9 4 -10 6 -1 6 6 1 14 -3 18 -8z m226 -84 c-8 -8 -14 -8 -23
2 -11 10 -10 11 5 6 12 -5 17 -2 18 11 0 12 2 14 6 6 3 -8 0 -19 -6 -25z"/>
<path d="M1338 1297 c7 -9 26 -19 42 -22 42 -9 82 -60 78 -98 -4 -38 17 -47
26 -11 17 65 -38 131 -117 142 -38 5 -41 4 -29 -11z"/>
<path d="M1780 1191 c-6 -12 -7 -21 -1 -21 10 0 24 30 17 37 -2 3 -9 -5 -16
-16z"/>
<path d="M1728 1173 c6 -2 18 -2 25 0 6 3 1 5 -13 5 -14 0 -19 -2 -12 -5z"/>
<path d="M1341 938 c-1 -16 -5 -28 -10 -28 -12 0 -31 -129 -31 -218 0 -63 7
-100 34 -183 19 -57 40 -142 45 -189 10 -77 9 -110 -5 -178 -2 -12 -32 -49
-67 -82 -50 -48 -58 -60 -41 -60 12 0 28 8 35 17 22 26 127 91 159 98 32 7 45
19 35 34 -3 6 -22 4 -47 -5 -22 -7 -42 -14 -43 -14 -1 0 2 21 7 48 15 81 -12
245 -65 387 -15 41 -29 294 -15 272 4 -7 8 6 8 29 0 22 4 44 9 50 5 5 5 18 1
29 -8 18 -9 17 -9 -7z"/>
<path d="M1700 901 c0 -12 5 -21 12 -21 6 0 8 -3 5 -7 -8 -8 12 -33 26 -33 6
0 7 3 4 7 -4 3 -2 12 4 19 7 9 2 18 -21 34 l-30 21 0 -20z"/>
<path d="M620 330 c-16 -16 -20 -33 -20 -83 0 -99 -5 -97 257 -97 260 0 253
-3 253 102 0 100 5 98 -253 98 -204 0 -218 -1 -237 -20z m416 -25 c9 -21 -4
-78 -21 -101 -15 -19 -15 -19 -33 2 -16 19 -20 20 -28 6 -12 -18 -34 -8 -34
16 0 26 39 84 53 79 7 -2 14 -17 18 -33 5 -29 5 -29 12 9 8 38 23 48 33 22z
m-248 -61 c-3 -45 -5 -49 -30 -52 -19 -2 -28 2 -33 17 -8 27 -23 27 -27 -1 -2
-12 -9 -23 -15 -26 -17 -5 -17 55 0 88 21 41 42 36 58 -12 l13 -43 4 35 c4 51
11 65 23 53 6 -6 9 -32 7 -59z m107 -29 c0 -12 -50 -19 -71 -11 -9 3 -12 11
-9 16 8 14 80 9 80 -5z"/>
<path d="M1540 155 c0 -11 11 -15 40 -15 29 0 40 4 40 15 0 11 -11 15 -40 15
-29 0 -40 -4 -40 -15z"/>
<path d="M1630 154 c0 -8 9 -14 21 -14 11 0 30 -5 41 -11 30 -16 45 4 16 23
-30 19 -78 20 -78 2z"/>
<path d="M1510 150 c0 -5 5 -10 10 -10 6 0 10 5 10 10 0 6 -4 10 -10 10 -5 0
-10 -4 -10 -10z"/>
</g>
</svg>
